<?xml version="1.0" standalone="no"?>
<svg xmlns:xlink="http://www.w3.org/1999/xlink" id="wave" style="transform:rotate(180deg); transition: 0.3s" viewBox="0 0 1440 490" version="1.1" xmlns="http://www.w3.org/2000/svg"><defs><linearGradient id="sw-gradient-0" x1="0" x2="0" y1="1" y2="0"><stop stop-color="rgba(37, 150, 190, 1)" offset="0%"/><stop stop-color="rgba(37, 150, 190, 1)" offset="100%"/></linearGradient></defs><path style="transform:translate(0, 0px); opacity:1" fill="url(#sw-gradient-0)" d="M0,441L48,408.3C96,376,192,310,288,302.2C384,294,480,343,576,326.7C672,310,768,229,864,163.3C960,98,1056,49,1152,98C1248,147,1344,294,1440,326.7C1536,359,1632,278,1728,220.5C1824,163,1920,131,2016,106.2C2112,82,2208,65,2304,89.8C2400,114,2496,180,2592,236.8C2688,294,2784,343,2880,302.2C2976,261,3072,131,3168,89.8C3264,49,3360,98,3456,106.2C3552,114,3648,82,3744,130.7C3840,180,3936,310,4032,318.5C4128,327,4224,212,4320,179.7C4416,147,4512,196,4608,220.5C4704,245,4800,245,4896,261.3C4992,278,5088,310,5184,318.5C5280,327,5376,310,5472,310.3C5568,310,5664,327,5760,343C5856,359,5952,376,6048,326.7C6144,278,6240,163,6336,163.3C6432,163,6528,278,6624,318.5C6720,359,6816,327,6864,310.3L6912,294L6912,490L6864,490C6816,490,6720,490,6624,490C6528,490,6432,490,6336,490C6240,490,6144,490,6048,490C5952,490,5856,490,5760,490C5664,490,5568,490,5472,490C5376,490,5280,490,5184,490C5088,490,4992,490,4896,490C4800,490,4704,490,4608,490C4512,490,4416,490,4320,490C4224,490,4128,490,4032,490C3936,490,3840,490,3744,490C3648,490,3552,490,3456,490C3360,490,3264,490,3168,490C3072,490,2976,490,2880,490C2784,490,2688,490,2592,490C2496,490,2400,490,2304,490C2208,490,2112,490,2016,490C1920,490,1824,490,1728,490C1632,490,1536,490,1440,490C1344,490,1248,490,1152,490C1056,490,960,490,864,490C768,490,672,490,576,490C480,490,384,490,288,490C192,490,96,490,48,490L0,490Z"/></svg>
